<svg width="158" height="260" viewBox="0 0 158 260" fill="none" xmlns="http://www.w3.org/2000/svg">
<g clip-path="url(#clip0_400_3)">
<path fill-rule="evenodd" clip-rule="evenodd" d="M2.54541 33.0907L78.3994 -4.1604e-06L154.253 33.0907L78.3994 5.09087L2.54541 33.0907ZM2.54541 218.907L78.3994 259.634L154.253 216.362L78.3994 254.544L2.54541 218.907Z" fill="#F6F6F6"/>
<path d="M38.5757 139.155C39.3188 139.155 39.9213 138.553 39.9213 137.81C39.9213 137.067 39.3188 136.464 38.5757 136.464C37.8325 136.464 37.23 137.067 37.23 137.81C37.23 138.553 37.8325 139.155 38.5757 139.155Z" fill="#FFB400"/>
<path d="M35.2728 46.1848C35.0281 46.4295 34.9058 46.7965 34.9058 47.0411V105.882H33.8048C33.0709 105.882 32.5815 106.371 32.5815 107.105V138.666C32.5815 141.969 35.2728 144.783 38.698 144.783C42.0009 144.783 44.8145 142.091 44.8145 138.666V107.105C44.8145 106.371 44.3252 105.882 43.5912 105.882H42.6126V101.356H49.3407C50.0747 101.356 50.564 100.866 50.564 100.132C50.564 48.9984 37.8417 46.0625 36.3738 45.9402C35.7621 45.8178 35.5175 45.9402 35.2728 46.1848ZM42.2456 138.788C42.2456 140.746 40.6553 142.458 38.5757 142.458C36.4961 142.458 34.9058 140.868 34.9058 138.788V108.328H42.1233V138.788H42.2456ZM37.2301 49.1207C40.4106 51.5673 47.7504 61.109 47.9951 98.9089H41.2669C40.533 98.9089 40.0437 99.3982 40.0437 100.132V105.882H37.2301V49.1207Z" fill="#FFB400"/>
<path d="M77.1095 97.9303V119.583C77.1095 121.295 78.5775 122.763 80.2901 122.763H106.224C107.937 122.763 109.405 121.295 109.405 119.583V95.4837C114.175 94.505 117.601 90.3458 117.601 85.3303C117.601 80.6818 114.42 76.6449 109.894 75.4216C108.548 75.0546 107.08 74.9323 105.612 75.177C103.655 70.8954 99.2512 67.9595 94.4804 67.9595C89.9542 67.9595 85.7949 70.4061 83.7153 74.443C82.3697 74.1983 80.9018 74.076 79.4338 74.3206C74.0513 75.0546 69.6474 79.5808 69.0358 84.9633C68.4241 90.7128 71.727 95.973 77.1095 97.9303ZM71.4824 85.208C71.9717 80.8041 75.5192 77.2566 79.8008 76.6449C80.2901 76.5226 80.7794 76.5226 81.1464 76.5226C82.1251 76.5226 83.1037 76.6449 83.96 77.0119C83.96 77.0119 83.96 77.0119 84.0823 77.0119C84.0823 77.0119 87.1406 77.6235 88.9755 80.6818C89.2202 81.0488 89.5872 81.2934 90.0765 81.2934C90.3211 81.2934 90.4435 81.2934 90.6881 81.1711C91.2998 80.8041 91.4221 80.0701 91.1774 79.4585C89.7095 77.0119 87.6299 75.7886 86.1619 75.177C87.8745 72.241 91.0551 70.4061 94.4804 70.4061C98.6396 70.4061 102.309 73.0973 103.655 77.0119C103.9 77.6235 104.511 77.9905 105.123 77.7459C106.469 77.3789 107.814 77.3789 109.16 77.7459C112.585 78.7245 115.032 81.7828 115.154 85.3303C115.154 89.3672 112.096 92.7924 108.059 93.1594C107.447 93.2817 106.958 93.7711 106.958 94.3827V119.46C106.958 119.827 106.591 120.194 106.224 120.194H80.2901C79.9231 120.194 79.5561 119.827 79.5561 119.46V96.9516C79.5561 96.34 79.1891 95.973 78.6998 95.7283C73.929 94.6274 70.993 90.1012 71.4824 85.208Z" fill="#FFB400"/>
<path d="M83.3484 117.014C84.0823 117.014 84.5717 116.524 84.5717 115.79V108.573C84.5717 107.839 84.0823 107.35 83.3484 107.35C82.6144 107.35 82.1251 107.839 82.1251 108.573V115.79C82.1251 116.402 82.6144 117.014 83.3484 117.014Z" fill="#FFB400"/>
<path d="M88.3639 117.014C89.0978 117.014 89.5872 116.524 89.5872 115.79V108.573C89.5872 107.839 89.0978 107.35 88.3639 107.35C87.6299 107.35 87.1406 107.839 87.1406 108.573V115.79C87.1406 116.402 87.6299 117.014 88.3639 117.014Z" fill="#FFB400"/>
<path d="M93.3794 117.014C94.1133 117.014 94.6027 116.524 94.6027 115.79V108.573C94.6027 107.839 94.1133 107.35 93.3794 107.35C92.6454 107.35 92.1561 107.839 92.1561 108.573V115.79C92.1561 116.402 92.7677 117.014 93.3794 117.014Z" fill="#FFB400"/>
<path d="M98.5172 117.014C99.2512 117.014 99.7405 116.524 99.7405 115.79V108.573C99.7405 107.839 99.2512 107.35 98.5172 107.35C97.7833 107.35 97.2939 107.839 97.2939 108.573V115.79C97.2939 116.402 97.7833 117.014 98.5172 117.014Z" fill="#FFB400"/>
<path d="M103.533 117.014C104.267 117.014 104.756 116.524 104.756 115.79V108.573C104.756 107.839 104.267 107.35 103.533 107.35C102.799 107.35 102.309 107.839 102.309 108.573V115.79C102.309 116.402 102.799 117.014 103.533 117.014Z" fill="#FFB400"/>
<path d="M123.717 45.8178H56.1912C55.4572 45.8178 54.9679 46.3071 54.9679 47.0411V143.559C54.9679 144.293 55.4572 144.783 56.1912 144.783H123.717C124.451 144.783 124.94 144.293 124.94 143.559V47.0411C124.94 46.4295 124.451 45.8178 123.717 45.8178ZM61.8184 142.336H57.4145V48.2644H61.8184V142.336ZM122.494 142.336H64.265V48.2644H122.494V142.336Z" fill="#FFB400"/>
<path d="M12.8945 182.653H12.644C8.96253 182.653 5.93647 181.342 3.56577 178.74C1.19507 176.138 0 172.842 0 168.833C0 165.171 1.00224 162.087 2.98748 159.601C4.97271 157.114 7.55549 155.63 10.755 155.129L11.3525 155.033L11.95 154.975H12.6246C15.4772 154.975 17.9251 155.65 19.9874 156.98L21.0668 157.674L18.9659 159.524L16.2097 157.577C14.9183 156.633 13.5691 156.17 12.1428 156.17C9.21302 156.17 6.82308 157.731 4.9534 160.873C3.50787 163.34 2.77543 166.077 2.77543 169.065L2.79471 169.836C3.23802 173.613 4.4909 176.37 6.57245 178.123C8.654 179.877 10.6393 180.803 12.5089 180.899L12.7017 180.957L13.5883 180.995C15.1302 180.995 16.6529 180.61 18.1755 179.82C19.6981 179.029 20.9124 177.719 21.857 175.849L21.9148 175.791V176.196L21.857 176.292C20.0644 180.533 17.077 182.653 12.8945 182.653ZM36.2029 182.614C31.6734 182.422 28.5702 180.533 26.932 176.967C26.1995 175.367 25.8333 173.69 25.8333 171.956V154.84H28.4931L28.551 170.047C28.551 171.994 28.6666 173.574 28.8979 174.789C29.1292 176.003 29.6496 177.121 30.4591 178.104C31.2493 179.106 32.1938 179.877 33.2924 180.397C34.603 181.014 35.9523 181.342 37.3593 181.361C37.8797 181.361 38.4194 181.303 38.9591 181.188C41.484 180.706 43.3922 179.299 44.6836 177.005C45.1269 176.215 45.3582 175.058 45.3582 173.555V154.84H46.5531V173.555C46.5531 175.887 45.8014 177.911 44.2788 179.588C42.7561 181.265 40.8094 182.267 38.4194 182.575L36.2029 182.614ZM70.0541 182.576H53.1316V154.841H55.7915V181.324H61.9978C63.7903 181.189 65.2937 180.9 66.4888 180.475C67.6839 180.051 68.5704 179.647 69.1679 179.242L70.0545 178.644L70.0541 182.576ZM76.3051 182.614H73.6645V154.879H76.3051V182.614ZM84.6953 182.653H83.5003V154.878H84.6953L100.962 177.988V154.898H102.157V182.633H100.962L84.6953 159.504V182.653ZM103.069 182.692H101.739C101.836 182.518 105.055 173.209 111.357 154.801H114.152L122.845 182.556H120.127L117.949 175.637H105.498L103.069 182.692ZM117.564 174.442L111.974 156.729L105.903 174.442H117.564ZM131.023 182.614H128.382V154.879H131.023V182.614ZM157.01 182.576H154.312L150.592 170.819C149.821 170.954 148.992 171.031 148.125 171.031H140.877V182.537H138.237V154.762H148.125C150.13 154.762 151.71 155.052 152.886 155.63C154.987 156.671 156.259 158.27 156.702 160.41C156.876 161.277 156.972 162.202 156.972 163.166C156.972 166.346 155.681 168.621 153.098 170.009L157.01 182.576ZM146.814 169.835C149.262 169.835 151.189 169.257 152.558 168.081C153.734 167.04 154.331 165.306 154.331 162.896C154.331 160.487 153.676 158.695 152.346 157.519C151.151 156.478 149.301 155.958 146.814 155.958H140.878V169.836L146.814 169.835Z" fill="#F6F6F6"/>
<path d="M15.6844 213.632H0V187.926H2.46525V212.471H8.21757C9.87894 212.346 11.2723 212.078 12.38 211.685C13.4876 211.292 14.3093 210.917 14.863 210.542L15.6848 209.988L15.6844 213.632ZM34.6439 213.614H19.0665V187.889H34.6439V189.05H21.5141V200.162H30.9286V201.323H21.5141V212.452H34.6439V213.614ZM53.3531 213.614H37.7757V187.889H53.3531V189.05H40.2233V200.162H49.6378V201.323H40.2233V212.452H53.3531V213.614ZM60.004 213.685L58.2533 213.632C56.8063 213.578 55.395 213.167 54.0195 212.417L52.2867 211.345L54.4125 209.451L56.8241 211.149C58.2175 212.095 59.7182 212.56 61.326 212.56H61.5225C65.6848 212.346 67.7749 210.809 67.7749 207.969C67.7749 205.914 65.4168 203.717 60.6828 201.377C60.2183 201.127 59.7003 200.877 59.1465 200.645C58.0568 200.144 57.0027 199.591 55.9666 199.001C54.9305 198.411 54.073 197.715 53.3942 196.893C52.7153 196.089 52.3759 195.089 52.3759 193.91C52.3759 192.588 53.019 191.355 54.3231 190.23C55.6271 189.104 57.4493 188.354 59.7896 188.015L61.6475 187.925C63.4161 187.979 65.0596 188.39 66.5959 189.176L68.4181 190.248L66.4709 191.927L63.6484 190.105C62.4515 189.372 61.4511 188.997 60.6829 188.997C58.9501 189.194 57.521 189.73 56.4312 190.623C55.3415 191.516 54.7877 192.606 54.7877 193.874C54.7877 194.946 55.2522 195.785 56.1632 196.411C57.0743 197.036 58.1819 197.643 59.5217 198.269C60.4328 198.715 61.3797 199.18 62.3443 199.662C63.8984 200.466 65.2561 201.252 66.453 202.02C67.65 202.788 68.5789 203.646 69.2577 204.592C69.9366 205.539 70.276 206.718 70.276 208.112C70.276 211.077 67.9 212.881 63.1303 213.525C62.8266 213.632 61.7905 213.685 60.004 213.685ZM81.1604 213.596H78.32L69.5129 187.89H72.264L80.5887 212.006L89.6102 187.89H90.8071L81.1604 213.596ZM102.246 213.596C99.0125 213.471 96.3864 212.256 94.35 209.934C92.1884 207.397 91.0987 204.36 91.0987 200.841C91.0987 197.286 92.1884 194.249 94.35 191.712C96.6902 189.229 99.5306 187.997 102.835 187.997C106.14 187.997 108.963 189.229 111.267 191.712C113.465 194.249 114.572 197.286 114.572 200.841C114.572 204.36 113.465 207.397 111.267 209.934C109.249 212.381 106.605 213.614 103.336 213.614H103.157L102.246 213.596ZM103.121 212.578C105.319 212.578 107.337 211.595 109.195 209.648C111.142 207.486 112.107 204.592 112.107 200.948V200.609C111.928 196.911 111.089 194.16 109.606 192.355C107.802 190.194 105.604 189.104 103.014 189.104C100.495 189.104 98.3158 190.015 96.4758 191.837C94.5286 193.91 93.5461 196.804 93.5461 200.519L93.5639 201.037C93.7247 205.075 94.8681 208.076 96.9939 210.023C98.816 211.685 100.853 212.542 103.121 212.578ZM136.479 213.614H120.902V187.889H136.479V189.05H123.349V200.162H132.764V201.323H123.349V212.452H136.479V213.614ZM157.01 213.632H154.509L151.061 202.735C150.347 202.86 149.579 202.931 148.775 202.931H142.058V213.596H139.61V187.853H148.775C150.633 187.853 152.098 188.121 153.188 188.657C155.135 189.622 156.314 191.104 156.725 193.087C156.885 193.891 156.975 194.749 156.975 195.642C156.975 198.59 155.778 200.698 153.384 201.984L157.01 213.632ZM147.56 201.823C149.829 201.823 151.615 201.287 152.884 200.197C153.973 199.233 154.527 197.625 154.527 195.392C154.527 193.159 153.92 191.498 152.687 190.408C151.58 189.443 149.865 188.961 147.56 188.961H142.058V201.824L147.56 201.823Z" fill="#F6F6F6"/>
</g>
<defs>
<clipPath id="clip0_400_3">
<rect width="157.01" height="259.634" fill="white"/>
</clipPath>
</defs>
</svg>
