<svg width="157.01013776022504" height="259.634375" viewBox="0 0 308.4151328487022 510" class="css-1j8o68f"><defs id="SvgjsDefs2570"></defs><g id="SvgjsG2571" featurekey="rootContainer" transform="matrix(1,0,0,1,0,0)" fill="#f6f6f6"><path xmlns="http://www.w3.org/2000/svg" fill-rule="evenodd" d="M5,65 L154,0 L303, 65 L154, 10 z M5,430 L154,510 L303,425 L154, 500 z"></path></g><g id="SvgjsG2572" featurekey="symbolFeature-0" transform="matrix(2.4029227335309873,0,0,2.4029227335309873,33.242588552482225,62.366388564393645)" fill="#ffb400"><circle xmlns="http://www.w3.org/2000/svg" cx="17.7" cy="86.7" r="1.1"></circle><path xmlns="http://www.w3.org/2000/svg" d="M15,11.8c-0.2,0.2-0.3,0.5-0.3,0.7v48.1h-0.9c-0.6,0-1,0.4-1,1v25.8c0,2.7,2.2,5,5,5c2.7,0,5-2.2,5-5V61.6c0-0.6-0.4-1-1-1  h-0.8v-3.7h5.5c0.6,0,1-0.4,1-1c0-41.8-10.4-44.2-11.6-44.3C15.4,11.5,15.2,11.6,15,11.8z M20.7,87.5c0,1.6-1.3,3-3,3s-3-1.3-3-3  V62.6h5.9V87.5z M16.6,14.2c2.6,2,8.6,9.8,8.8,40.7h-5.5c-0.6,0-1,0.4-1,1v4.7h-2.3V14.2z"></path><path xmlns="http://www.w3.org/2000/svg" d="M49.2,54.1v17.7c0,1.4,1.2,2.6,2.6,2.6h21.2c1.4,0,2.6-1.2,2.6-2.6V52.1c3.9-0.8,6.7-4.2,6.7-8.3c0-3.8-2.6-7.1-6.3-8.1  c-1.1-0.3-2.3-0.4-3.5-0.2c-1.6-3.5-5.2-5.9-9.1-5.9c-3.7,0-7.1,2-8.8,5.3c-1.1-0.2-2.3-0.3-3.5-0.1c-4.4,0.6-8,4.3-8.5,8.7  C42.1,48.2,44.8,52.5,49.2,54.1z M44.6,43.7c0.4-3.6,3.3-6.5,6.8-7c0.4-0.1,0.8-0.1,1.1-0.1c0.8,0,1.6,0.1,2.3,0.4c0,0,0,0,0.1,0  c0,0,0,0,0,0c0,0,2.5,0.5,4,3c0.2,0.3,0.5,0.5,0.9,0.5c0.2,0,0.3,0,0.5-0.1c0.5-0.3,0.6-0.9,0.4-1.4c-1.2-2-2.9-3-4.1-3.5  c1.4-2.4,4-3.9,6.8-3.9c3.4,0,6.4,2.2,7.5,5.4c0.2,0.5,0.7,0.8,1.2,0.6c1.1-0.3,2.2-0.3,3.3,0c2.8,0.8,4.8,3.3,4.9,6.2  c0,3.3-2.5,6.1-5.8,6.4c-0.5,0.1-0.9,0.5-0.9,1v20.5c0,0.3-0.3,0.6-0.6,0.6H51.8c-0.3,0-0.6-0.3-0.6-0.6V53.3c0-0.5-0.3-0.8-0.7-1  C46.6,51.4,44.2,47.7,44.6,43.7z"></path><path xmlns="http://www.w3.org/2000/svg" d="M54.3,69.7c0.6,0,1-0.4,1-1v-5.9c0-0.6-0.4-1-1-1s-1,0.4-1,1v5.9C53.3,69.2,53.7,69.7,54.3,69.7z"></path><path xmlns="http://www.w3.org/2000/svg" d="M58.4,69.7c0.6,0,1-0.4,1-1v-5.9c0-0.6-0.4-1-1-1s-1,0.4-1,1v5.9C57.4,69.2,57.8,69.7,58.4,69.7z"></path><path xmlns="http://www.w3.org/2000/svg" d="M62.5,69.7c0.6,0,1-0.4,1-1v-5.9c0-0.6-0.4-1-1-1s-1,0.4-1,1v5.9C61.5,69.2,62,69.7,62.5,69.7z"></path><path xmlns="http://www.w3.org/2000/svg" d="M66.7,69.7c0.6,0,1-0.4,1-1v-5.9c0-0.6-0.4-1-1-1s-1,0.4-1,1v5.9C65.7,69.2,66.1,69.7,66.7,69.7z"></path><path xmlns="http://www.w3.org/2000/svg" d="M70.8,69.7c0.6,0,1-0.4,1-1v-5.9c0-0.6-0.4-1-1-1s-1,0.4-1,1v5.9C69.8,69.2,70.2,69.7,70.8,69.7z"></path><path xmlns="http://www.w3.org/2000/svg" d="M87.3,11.5H32.1c-0.6,0-1,0.4-1,1v78.9c0,0.6,0.4,1,1,1h55.2c0.6,0,1-0.4,1-1V12.5C88.3,12,87.9,11.5,87.3,11.5z M36.7,90.4  h-3.6V13.5h3.6V90.4z M86.3,90.4H38.7V13.5h47.6V90.4z"></path></g><g id="SvgjsG2573" featurekey="nameFeature-0" transform="matrix(1.9384608206701968,0,0,1.9384608206701968,-1.968681332727216,280.98187955607904)" fill="#f6f6f6"><path d="M14.082 40.13672 l-0.25391 0 c-3.7305 0 -6.7969 -1.3281 -9.1992 -3.9648 s-3.6133 -5.9766 -3.6133 -10.039 c0 -3.7109 1.0156 -6.8359 3.0273 -9.3555 s4.6289 -4.0234 7.8711 -4.5313 l0.60547 -0.097656 l0.60547 -0.058594 l0.68359 0 c2.8906 0 5.3711 0.68359 7.4609 2.0313 l1.0938 0.70313 l-2.1289 1.875 l-2.793 -1.9727 c-1.3086 -0.95703 -2.6758 -1.4258 -4.1211 -1.4258 c-2.9688 0 -5.3906 1.582 -7.2852 4.7656 c-1.4648 2.5 -2.207 5.2734 -2.207 8.3008 l0.019531 0.78125 c0.44922 3.8281 1.7188 6.6211 3.8281 8.3984 s4.1211 2.7148 6.0156 2.8125 l0.19531 0.058594 l0.89844 0.039063 c1.5625 0 3.1055 -0.39063 4.6484 -1.1914 s2.7734 -2.1289 3.7305 -4.0234 l0.058594 -0.058594 l0 0.41016 l-0.058594 0.097656 c-1.8164 4.2969 -4.8438 6.4453 -9.082 6.4453 z M37.701046875 40.097656 c-4.5898 -0.19531 -7.7344 -2.1094 -9.3945 -5.7227 c-0.74219 -1.6211 -1.1133 -3.3203 -1.1133 -5.0781 l0 -17.344 l2.6953 0 l0.058594 15.41 c0 1.9727 0.11719 3.5742 0.35156 4.8047 s0.76172 2.3633 1.582 3.3594 c0.80078 1.0156 1.7578 1.7969 2.8711 2.3242 c1.3281 0.625 2.6953 0.95703 4.1211 0.97656 c0.52734 0 1.0742 -0.058594 1.6211 -0.17578 c2.5586 -0.48828 4.4922 -1.9141 5.8008 -4.2383 c0.44922 -0.80078 0.68359 -1.9727 0.68359 -3.4961 l0 -18.965 l1.2109 0 l0 18.965 c0 2.3633 -0.76172 4.4141 -2.3047 6.1133 s-3.5156 2.7148 -5.9375 3.0273 z M72.00346875 40.058594 l-17.148 0 l0 -28.105 l2.6953 0 l0 26.836 l6.2891 0 c1.8164 -0.13672 3.3398 -0.42969 4.5508 -0.85938 s2.1094 -0.83984 2.7148 -1.25 l0.89844 -0.60547 l0 3.9844 z M78.337871875 40.097656 l-2.6758 0 l0 -28.105 l2.6758 0 l0 28.105 z M86.83986875 40.13672 l-1.2109 0 l0 -28.145 l1.2109 0 l16.484 23.418 l0 -23.398 l1.2109 0 l0 28.105 l-1.2109 0 l-16.484 -23.438 l0 23.457 z M105.458985625 40.17578 l-1.3477 0 c0.097656 -0.17578 3.3594 -9.6094 9.7461 -28.262 l2.832 0 l8.8086 28.125 l-2.7539 0 l-2.207 -7.0117 l-12.617 0 z M120.146265625 31.8164 l-5.6641 -17.949 l-6.1523 17.949 l11.816 0 z M133.7851375 40.097656 l-2.6758 0 l0 -28.105 l2.6758 0 l0 28.105 z M160.118703125 40.058594 l-2.7344 0 l-3.7695 -11.914 c-0.78125 0.13672 -1.6211 0.21484 -2.5 0.21484 l-7.3438 0 l0 11.66 l-2.6758 0 l0 -28.145 l10.02 0 c2.0313 0 3.6328 0.29297 4.8242 0.87891 c2.1289 1.0547 3.418 2.6758 3.8672 4.8438 c0.17578 0.87891 0.27344 1.8164 0.27344 2.793 c0 3.2227 -1.3086 5.5273 -3.9258 6.9336 z M149.786703125 27.148 c2.4805 0 4.4336 -0.58594 5.8203 -1.7773 c1.1914 -1.0547 1.7969 -2.8125 1.7969 -5.2539 s-0.66406 -4.2578 -2.0117 -5.4492 c-1.2109 -1.0547 -3.0859 -1.582 -5.6055 -1.582 l-6.0156 0 l0 14.063 l6.0156 0 z"></path></g><g id="SvgjsG2574" featurekey="nameFeature-1" transform="matrix(1.7966453342321065,0,0,1.7966453342321065,-10.106130005055599,347.66585785104223)" fill="#f6f6f6"><path d="M22.773 40.058594 l-17.148 0 l0 -28.105 l2.6953 0 l0 26.836 l6.2891 0 c1.8164 -0.13672 3.3398 -0.42969 4.5508 -0.85938 s2.1094 -0.83984 2.7148 -1.25 l0.89844 -0.60547 l0 3.9844 z M43.501703125 40.039063 l-17.031 0 l0 -28.125 l17.031 0 l0 1.2695 l-14.355 0 l0 12.148 l10.293 0 l0 1.2695 l-10.293 0 l0 12.168 l14.355 0 l0 1.2695 z M63.95678125 40.039063 l-17.031 0 l0 -28.125 l17.031 0 l0 1.2695 l-14.355 0 l0 12.148 l10.293 0 l0 1.2695 l-10.293 0 l0 12.168 l14.355 0 l0 1.2695 z M71.228328125 40.11719 l-1.9141 -0.058594 c-1.582 -0.058594 -3.125 -0.50781 -4.6289 -1.3281 l-1.8945 -1.1719 l2.3242 -2.0703 l2.6367 1.8555 c1.5234 1.0352 3.1641 1.543 4.9219 1.543 l0.21484 0 c4.5508 -0.23438 6.8359 -1.9141 6.8359 -5.0195 c0 -2.2461 -2.5781 -4.6484 -7.7539 -7.207 c-0.50781 -0.27344 -1.0742 -0.54688 -1.6797 -0.80078 c-1.1914 -0.54688 -2.3438 -1.1523 -3.4766 -1.7969 s-2.0703 -1.4063 -2.8125 -2.3047 c-0.74219 -0.87891 -1.1133 -1.9727 -1.1133 -3.2617 c0 -1.4453 0.70313 -2.793 2.1289 -4.0234 s3.418 -2.0508 5.9766 -2.4219 l2.0313 -0.097656 c1.9336 0.058594 3.7305 0.50781 5.4102 1.3672 l1.9922 1.1719 l-2.1289 1.8359 l-3.0859 -1.9922 c-1.3086 -0.80078 -2.4023 -1.2109 -3.2422 -1.2109 c-1.8945 0.21484 -3.457 0.80078 -4.6484 1.7773 s-1.7969 2.168 -1.7969 3.5547 c0 1.1719 0.50781 2.0898 1.5039 2.7734 s2.207 1.3477 3.6719 2.0313 c0.99609 0.48828 2.0313 0.99609 3.0859 1.5234 c1.6992 0.87891 3.1836 1.7383 4.4922 2.5781 s2.3242 1.7773 3.0664 2.8125 s1.1133 2.3242 1.1133 3.8477 c0 3.2422 -2.5977 5.2148 -7.8125 5.918 c-0.33203 0.11719 -1.4648 0.17578 -3.418 0.17578 z M94.3589375 40.019531 l-3.1055 0 l-9.6289 -28.105 l3.0078 0 l9.1016 26.367 l9.8633 -26.367 l1.3086 0 z M117.412109375 40.019531 c-3.5352 -0.13672 -6.4063 -1.4648 -8.6328 -4.0039 c-2.3633 -2.7734 -3.5547 -6.0938 -3.5547 -9.9414 c0 -3.8867 1.1914 -7.207 3.5547 -9.9805 c2.5586 -2.7148 5.6641 -4.0625 9.2773 -4.0625 s6.6992 1.3477 9.2188 4.0625 c2.4023 2.7734 3.6133 6.0938 3.6133 9.9805 c0 3.8477 -1.2109 7.168 -3.6133 9.9414 c-2.207 2.6758 -5.0977 4.0234 -8.6719 4.0234 l-0.19531 0 z M118.369109375 38.9062 c2.4023 0 4.6094 -1.0742 6.6406 -3.2031 c2.1289 -2.3633 3.1836 -5.5273 3.1836 -9.5117 l0 -0.37109 c-0.19531 -4.043 -1.1133 -7.0508 -2.7344 -9.0234 c-1.9727 -2.3633 -4.375 -3.5547 -7.207 -3.5547 c-2.7539 0 -5.1367 0.99609 -7.1484 2.9883 c-2.1289 2.2656 -3.2031 5.4297 -3.2031 9.4922 l0.019531 0.56641 c0.17578 4.4141 1.4258 7.6953 3.75 9.8242 c1.9922 1.8164 4.2188 2.7539 6.6992 2.793 z M154.83959375 40.039063 l-17.031 0 l0 -28.125 l17.031 0 l0 1.2695 l-14.355 0 l0 12.148 l10.293 0 l0 1.2695 l-10.293 0 l0 12.168 l14.355 0 l0 1.2695 z M177.286671875 40.058594 l-2.7344 0 l-3.7695 -11.914 c-0.78125 0.13672 -1.6211 0.21484 -2.5 0.21484 l-7.3438 0 l0 11.66 l-2.6758 0 l0 -28.145 l10.02 0 c2.0313 0 3.6328 0.29297 4.8242 0.87891 c2.1289 1.0547 3.418 2.6758 3.8672 4.8438 c0.17578 0.87891 0.27344 1.8164 0.27344 2.793 c0 3.2227 -1.3086 5.5273 -3.9258 6.9336 z M166.954671875 27.148 c2.4805 0 4.4336 -0.58594 5.8203 -1.7773 c1.1914 -1.0547 1.7969 -2.8125 1.7969 -5.2539 s-0.66406 -4.2578 -2.0117 -5.4492 c-1.2109 -1.0547 -3.0859 -1.582 -5.6055 -1.582 l-6.0156 0 l0 14.063 l6.0156 0 z"></path></g></svg>